<?xml version="1.0" encoding="UTF-8" standalone="no"?>
<!-- Created with Inkscape (http://www.inkscape.org/) -->

<svg
   width="512"
   height="512"
   viewBox="0 0 135.46666 135.46667"
   version="1.1"
   id="svg5"
   inkscape:version="1.1 (c4e8f9ed74, 2021-05-24)"
   sodipodi:docname="link_eye.svg"
   inkscape:export-filename="/data/jails/kuesji/intellij/projects/kuesji.link_eye/art/link_eye.png"
   inkscape:export-xdpi="256"
   inkscape:export-ydpi="256"
   xmlns:inkscape="http://www.inkscape.org/namespaces/inkscape"
   xmlns:sodipodi="http://sodipodi.sourceforge.net/DTD/sodipodi-0.dtd"
   xmlns="http://www.w3.org/2000/svg"
   xmlns:svg="http://www.w3.org/2000/svg">
  <sodipodi:namedview
     id="namedview7"
     pagecolor="#505050"
     bordercolor="#ffffff"
     borderopacity="1"
     inkscape:pageshadow="0"
     inkscape:pageopacity="0"
     inkscape:pagecheckerboard="1"
     inkscape:document-units="mm"
     showgrid="false"
     units="px"
     height="512px"
     inkscape:zoom="0.6034712"
     inkscape:cx="348.81532"
     inkscape:cy="202.99229"
     inkscape:window-width="1366"
     inkscape:window-height="707"
     inkscape:window-x="0"
     inkscape:window-y="0"
     inkscape:window-maximized="1"
     inkscape:current-layer="layer1" />
  <defs
     id="defs2" />
  <g
     inkscape:label="Katman 1"
     inkscape:groupmode="layer"
     id="layer1">
    <rect
       style="fill:#130f16;fill-opacity:1;stroke-width:9.12414;paint-order:stroke fill markers"
       id="rect846"
       width="135.46666"
       height="135.46666"
       x="0"
       y="-135.46666"
       transform="rotate(90)"
       ry="14.973608"
       rx="0" />
    <path
       id="rect1326"
       style="fill:#41609b;fill-opacity:1;stroke-width:0.718421;paint-order:stroke fill markers"
       d="m 52.492918,49.10656 -3.38636,3.38687 -13.54697,13.54646 -1.69292,1.69344 1.69292,1.69344 13.54697,13.54646 3.38636,3.38687 15.24041,-15.24041 11.85302,11.85354 3.38688,3.38687 3.38636,-3.38687 13.54697,-13.54646 1.693442,-1.69344 -1.693442,-1.69344 -16.93333,-16.93333 -3.38688,3.38687 -11.85302,11.85303 z m 0,6.77323 11.85354,11.85354 -11.85354,11.85354 -11.85302,-11.85354 z m 30.48031,0 11.85302,11.85354 -11.85302,11.85354 -11.85354,-11.85354 z m -30.47876,8.48734 -1.68362,1.68258 -1.68362,1.68207 1.68207,1.68413 1.68258,1.68362 1.68362,-1.68258 1.68362,-1.68207 -1.68207,-1.68413 z m 30.47979,0 -1.68362,1.68258 -1.68362,1.68207 1.68207,1.68413 1.68259,1.68362 1.68362,-1.68258 1.68413,-1.68207 -1.68258,-1.68413 z" />
  </g>
</svg>
